PathFileType	4	(X/Y/Z)	/home/ubuntu/injury_detection/risk_analysis_package/data/KD_injured/trc_data/trials/KD_injured.trc
DataRate	CameraRate	NumFrames	NumMarkers	Units	OrigDataRate	OrigDataStartFrame	OrigNumFrames
30	30	4	105	m	30	49	98
Frame#	Time	BLTI			BRTI			C7			CHIN			CLAV			FBBT			FLTI			FRBT			FRTI			LAKI			LANK			LBAC			LBHD			LBWT			LELB			LELS			LELSO			LFBB			LFBT			LFFB			LFFT			LFHD			LFIN			LFLB			LFLT			LFMB			LFMT			LFPI			LFRM			LFWT			LHAP			LHBA			LHEB			LHEE			LHFR			LHME			LHPI			LHTH			LHTO			LKNE			LKNI			LMT5			LSCA			LSHN			LSHO			LTIA			LTIB			LTIC			LTOE			LTOP			LTOS			LUMB			LUMC			LWRA			LWRB			NOSE			RAKI			RANK			RBAC			RBHD			RBWT			RELB			RELS			RELSO			RFBB			RFBT			RFFB			RFFT			RFHD			RFIN			RFLB			RFLT			RFMB			RFMT			RFPI			RFRM			RFWT			RHAP			RHBA			RHEB			RHEE			RHFR			RHME			RHPI			RHTH			RHTO			RIBL			RIBR			RITL			RITR			RKNE			RKNI			RMT5			RSCA			RSHN			RSHO			RTIA			RTIB			RTIC			RTOE			RTOP			RTOS			RWRA			RWRB			THD		
		X1	Y1	Z1	X2	Y2	Z2	X3	Y3	Z3	X4	Y4	Z4	X5	Y5	Z5	X6	Y6	Z6	X7	Y7	Z7	X8	Y8	Z8	X9	Y9	Z9	X10	Y10	Z10	X11	Y11	Z11	X12	Y12	Z12	X13	Y13	Z13	X14	Y14	Z14	X15	Y15	Z15	X16	Y16	Z16	X17	Y17	Z17	X18	Y18	Z18	X19	Y19	Z19	X20	Y20	Z20	X21	Y21	Z21	X22	Y22	Z22	X23	Y23	Z23	X24	Y24	Z24	X25	Y25	Z25	X26	Y26	Z26	X27	Y27	Z27	X28	Y28	Z28	X29	Y29	Z29	X30	Y30	Z30	X31	Y31	Z31	X32	Y32	Z32	X33	Y33	Z33	X34	Y34	Z34	X35	Y35	Z35	X36	Y36	Z36	X37	Y37	Z37	X38	Y38	Z38	X39	Y39	Z39	X40	Y40	Z40	X41	Y41	Z41	X42	Y42	Z42	X43	Y43	Z43	X44	Y44	Z44	X45	Y45	Z45	X46	Y46	Z46	X47	Y47	Z47	X48	Y48	Z48	X49	Y49	Z49	X50	Y50	Z50	X51	Y51	Z51	X52	Y52	Z52	X53	Y53	Z53	X54	Y54	Z54	X55	Y55	Z55	X56	Y56	Z56	X57	Y57	Z57	X58	Y58	Z58	X59	Y59	Z59	X60	Y60	Z60	X61	Y61	Z61	X62	Y62	Z62	X63	Y63	Z63	X64	Y64	Z64	X65	Y65	Z65	X66	Y66	Z66	X67	Y67	Z67	X68	Y68	Z68	X69	Y69	Z69	X70	Y70	Z70	X71	Y71	Z71	X72	Y72	Z72	X73	Y73	Z73	X74	Y74	Z74	X75	Y75	Z75	X76	Y76	Z76	X77	Y77	Z77	X78	Y78	Z78	X79	Y79	Z79	X80	Y80	Z80	X81	Y81	Z81	X82	Y82	Z82	X83	Y83	Z83	X84	Y84	Z84	X85	Y85	Z85	X86	Y86	Z86	X87	Y87	Z87	X88	Y88	Z88	X89	Y89	Z89	X90	Y90	Z90	X91	Y91	Z91	X92	Y92	Z92	X93	Y93	Z93	X94	Y94	Z94	X95	Y95	Z95	X96	Y96	Z96	X97	Y97	Z97	X98	Y98	Z98	X99	Y99	Z99	X100	Y100	Z100	X101	Y101	Z101	X102	Y102	Z102	X103	Y103	Z103	X104	Y104	Z104	X105	Y105	Z105

50	1.63333	-0.456287	-0.646194	84.988	-0.212112	-0.306885	85.3961	-0.109906	0.045782	85.0968	-0.0639645	0.00488701	84.9595	-0.0945844	0.00257757	84.9715	-0.468348	-0.651206	85.0781	-0.478042	-0.544433	85.0224	-0.215088	-0.26357	85.4773	-0.226536	-0.20215	85.3711	-0.526269	-0.735697	85.0969	-0.471005	-0.769374	85.0751	0.116312	0.0550015	85.0866	-0.175016	-0.145218	84.9199	-0.0186357	-0.0945089	84.7141	0.285091	0.0963295	84.972	0.234359	0.109479	84.9512	0.281591	0.0636737	84.9593	-0.309292	-0.357837	84.8989	-0.177539	-0.300339	84.8692	-0.432465	-0.29578	84.9464	-0.266689	-0.186046	84.8628	-0.0668705	-0.110246	84.8538	0.486515	0.145618	84.7145	-0.355725	-0.318875	84.9745	-0.20224	-0.235191	84.9807	-0.371946	-0.30872	84.8608	-0.224645	-0.225234	84.8181	-0.383464	-0.690063	85.2106	0.370378	0.134328	84.898	0.00739711	-0.125427	84.9208	0.112178	0.00267738	85.01	0.197058	0.0659653	85.0303	-0.487467	-0.834783	85.1161	-0.50764	-0.83097	85.0758	0.171055	0.00491618	84.9721	0.55139	0.106204	84.6485	0.517114	0.176589	84.7549	0.428323	0.193016	84.7049	0.175642	-0.0205785	85.0527	-0.390509	-0.382413	84.9589	-0.464748	-0.366493	84.9167	-0.422566	-0.677233	85.2248	-0.0277193	0.0154644	85.1338	-0.383021	-0.505215	84.9569	0.0189467	-0.0851181	85.1242	-0.448656	-0.421407	84.9926	-0.44871	-0.57628	85.0549	-0.490367	-0.681763	85.0906	-0.429721	-0.640632	85.2611	-0.395193	-0.722695	85.1729	-0.472008	-0.696158	85.2328	0.108616	0.0338956	84.7729	0.0824034	0.0153369	84.7525	0.419717	0.201801	84.7665	0.460953	0.192092	84.804	-0.059338	-0.0178261	84.8579	-0.144829	-0.292166	85.53	-0.160762	-0.355914	85.5477	0.0345262	0.201778	85.0134	-0.224121	-0.0696293	84.8934	-0.0560387	-0.0414703	84.7051	-0.139947	-0.0453297	84.6269	-0.0918351	-0.0163088	84.6556	-0.161041	-0.0301051	84.6558	-0.303516	-0.160412	85.0781	-0.261502	-0.139209	84.9139	-0.267177	-0.0737979	85.2033	-0.163949	-0.0811759	85.0114	-0.142225	0.00181299	84.8304	-0.00435048	-0.371881	84.7028	-0.323317	-0.0967229	85.1321	-0.277839	-0.000505477	84.9685	-0.236674	-0.158419	85.1057	-0.177119	-0.148329	84.958	-0.239169	-0.287371	85.6994	-0.12059	-0.151765	84.6474	-0.114495	0.0513521	84.8724	-0.0838115	0.100068	84.8149	-0.129487	0.076942	84.7155	-0.085157	-0.349459	85.5958	-0.0868962	-0.36251	85.5554	-0.104028	0.00672977	84.7624	0.0303139	-0.460826	84.6992	-0.0475657	-0.366019	84.6612	0.0285549	-0.299641	84.703	-0.162856	0.062548	84.7815	0.0767706	-0.112013	84.9006	-0.0200251	0.130723	84.8133	-0.0409308	-0.0589078	84.9938	-0.0985428	0.0561013	84.933	-0.335128	-0.134311	85.2098	-0.250797	-0.143552	85.2	-0.23189	-0.262765	85.6726	-0.112273	0.17	85.0339	-0.292099	-0.248972	85.3681	-0.163347	0.131655	84.9433	-0.285897	-0.136538	85.2791	-0.245913	-0.198776	85.3831	-0.189971	-0.272781	85.5049	-0.245409	-0.214193	85.6723	-0.215891	-0.332662	85.6838	-0.193361	-0.242261	85.6505	-0.0374268	-0.270958	84.7152	-0.0804037	-0.292685	84.6885	-0.168879	-0.117702	84.7702
51	1.66667	-0.477565	-0.65643	86.2194	-0.206254	-0.320075	86.6478	-0.116054	0.0407371	86.3515	-0.071369	-0.000368357	86.2139	-0.101987	-0.00299123	86.2262	-0.489908	-0.667733	86.3089	-0.494204	-0.556771	86.2612	-0.202558	-0.276682	86.7289	-0.220518	-0.214998	86.6235	-0.551816	-0.75012	86.3217	-0.498823	-0.785093	86.2964	0.110116	0.0467345	86.3402	-0.18441	-0.14897	86.1749	-0.026116	-0.105391	85.97	0.279441	0.0880839	86.2375	0.229999	0.100314	86.2137	0.277126	0.0551965	86.2254	-0.317132	-0.367478	86.1512	-0.184711	-0.312023	86.1229	-0.439234	-0.305656	86.2004	-0.272654	-0.196336	86.118	-0.0760375	-0.115519	86.1084	0.497649	0.133923	85.9939	-0.363308	-0.330408	86.2277	-0.208778	-0.24788	86.2359	-0.378911	-0.31659	86.1142	-0.231012	-0.235301	86.0728	-0.40374	-0.723947	86.4353	0.369062	0.125361	86.1688	0.00243603	-0.137836	86.1762	0.105758	-0.00574759	86.2679	0.189215	0.0588185	86.2915	-0.519142	-0.852794	86.3319	-0.539525	-0.844388	86.2924	0.166609	-0.00396922	86.2337	0.567774	0.0935132	85.9342	0.524914	0.16582	86.0359	0.440356	0.180919	85.9789	0.167063	-0.027117	86.3152	-0.399069	-0.393812	86.2098	-0.472628	-0.373863	86.1681	-0.441304	-0.709431	86.4516	-0.0361831	0.0111885	86.3875	-0.397185	-0.51741	86.199	0.00709172	-0.0894014	86.3823	-0.458957	-0.433379	86.2405	-0.466658	-0.592407	86.2912	-0.513266	-0.697801	86.3193	-0.444635	-0.675752	86.4909	-0.418747	-0.752365	86.3955	-0.491916	-0.725483	86.4594	0.102092	0.0222673	86.0282	0.0757749	0.00365657	86.0081	0.426848	0.190726	86.0396	0.465263	0.182066	86.0802	-0.067435	-0.0231333	86.1124	-0.129338	-0.306648	86.7762	-0.144943	-0.369782	86.7964	0.0325557	0.193468	86.2681	-0.232801	-0.0727535	86.1488	-0.0635243	-0.0522553	85.9619	-0.129823	-0.0404837	85.8758	-0.0824125	-0.0145155	85.9083	-0.152223	-0.0245927	85.9033	-0.309485	-0.172005	86.3367	-0.266874	-0.150976	86.1721	-0.271255	-0.0850229	86.4617	-0.169306	-0.0922298	86.269	-0.150183	-0.00255518	86.0852	-0.02038	-0.376081	85.9533	-0.328753	-0.108213	86.3913	-0.284233	-0.0122755	86.2272	-0.242192	-0.169917	86.3636	-0.182284	-0.159663	86.2159	-0.209852	-0.295897	86.9524	-0.118358	-0.148093	85.8954	-0.119757	0.0395736	86.1301	-0.0811346	0.0977911	86.0702	-0.120126	0.0791325	85.9674	-0.0654832	-0.363078	86.8387	-0.0708056	-0.377235	86.7988	-0.101455	0.00688705	86.0143	0.00895832	-0.466853	85.9483	-0.059871	-0.365945	85.9089	0.0166863	-0.306142	85.9588	-0.158664	0.0648275	86.0307	0.0697263	-0.121637	86.1576	-0.0258966	0.119977	86.0671	-0.0490516	-0.0656829	86.2494	-0.104832	0.0514063	86.1875	-0.339046	-0.145606	86.4698	-0.255199	-0.155605	86.4564	-0.204659	-0.272135	86.9244	-0.114594	0.165854	86.2886	-0.287037	-0.260621	86.6252	-0.165973	0.130105	86.1951	-0.285461	-0.148273	86.536	-0.239018	-0.211203	86.6369	-0.175768	-0.286529	86.7545	-0.217228	-0.223321	86.924	-0.188672	-0.342079	86.9362	-0.168079	-0.253075	86.8983	-0.0482809	-0.273522	85.9672	-0.0901264	-0.29187	85.9365	-0.178653	-0.121745	86.0252
52	1.7	-0.495379	-0.666845	87.191	-0.236023	-0.327133	87.6531	-0.127941	0.023664	87.3661	-0.084089	-0.00784038	87.2254	-0.113381	-0.0139165	87.239	-0.510314	-0.683833	87.2795	-0.511243	-0.56999	87.2389	-0.231657	-0.284524	87.7345	-0.247111	-0.221547	87.6295	-0.574017	-0.765581	87.2854	-0.521131	-0.799268	87.2591	0.098236	0.0288125	87.3568	-0.195437	-0.155554	87.1786	-0.0345851	-0.109442	86.9816	0.267971	0.0776855	87.2695	0.219702	0.089929	87.2433	0.266977	0.0452043	87.2562	-0.328443	-0.376189	87.1456	-0.195636	-0.319915	87.1236	-0.45172	-0.316711	87.1943	-0.28321	-0.203886	87.1208	-0.0886794	-0.11585	87.1125	0.49813	0.135161	87.0398	-0.376791	-0.342781	87.2225	-0.222716	-0.260232	87.2388	-0.389007	-0.32365	87.1093	-0.240485	-0.240852	87.0754	-0.428496	-0.751894	87.4045	0.360474	0.118746	87.2071	-0.00896069	-0.147671	87.1871	0.0943731	-0.0197318	87.2859	0.175497	0.0452776	87.317	-0.543453	-0.869248	87.2879	-0.562746	-0.857179	87.249	0.157209	-0.0157249	87.2559	0.572092	0.0978847	86.9826	0.52266	0.166079	87.0842	0.440943	0.181829	87.0234	0.153412	-0.0415874	87.3366	-0.412044	-0.405593	87.2005	-0.484193	-0.382729	87.1579	-0.466123	-0.738278	87.4214	-0.0503876	-0.00705549	87.401	-0.411918	-0.528554	87.1818	-0.00934155	-0.107093	87.3942	-0.473329	-0.446287	87.227	-0.485194	-0.608038	87.2672	-0.534573	-0.713934	87.2875	-0.469608	-0.708199	87.4636	-0.443124	-0.776545	87.3623	-0.517132	-0.754117	87.4268	0.0936664	0.0158844	87.0449	0.0675772	-0.00202605	87.0239	0.424087	0.189279	87.0835	0.460452	0.179975	87.1259	-0.0816336	-0.0236897	87.1225	-0.159772	-0.317042	87.7821	-0.177266	-0.379789	87.8018	0.0241109	0.178602	87.2918	-0.245323	-0.0786791	87.1584	-0.0715451	-0.0559099	86.9745	-0.116766	-0.0247112	86.8824	-0.0717755	-0.000781938	86.9197	-0.141029	-0.011262	86.9096	-0.32933	-0.175198	87.3427	-0.280483	-0.155335	87.1794	-0.293163	-0.0884598	87.4691	-0.185296	-0.0981867	87.2792	-0.165383	-0.00289173	87.0982	-0.00566636	-0.363509	86.941	-0.349231	-0.110898	87.3967	-0.297688	-0.0165014	87.234	-0.262876	-0.174198	87.3716	-0.197386	-0.165573	87.2256	-0.241272	-0.305656	87.9579	-0.104383	-0.133275	86.8944	-0.129148	0.0318639	87.1438	-0.0819726	0.0980712	87.0888	-0.114416	0.0872417	86.9829	-0.097928	-0.37556	87.8446	-0.103342	-0.389276	87.8045	-0.0976297	0.011997	87.0254	0.02561	-0.453296	86.9312	-0.0425328	-0.350674	86.895	0.0295338	-0.293643	86.9541	-0.156499	0.0680916	87.0424	0.058167	-0.130989	87.1686	-0.0343666	0.11418	87.0848	-0.0608414	-0.0782068	87.2603	-0.115007	0.0429502	87.2027	-0.362315	-0.147703	87.4752	-0.278644	-0.159625	87.4636	-0.235207	-0.281749	87.9302	-0.123913	0.152323	87.3094	-0.314864	-0.265191	87.6303	-0.174091	0.122568	87.2116	-0.309506	-0.152183	87.542	-0.265597	-0.217227	87.6428	-0.205384	-0.295404	87.7603	-0.246483	-0.232613	87.9303	-0.221121	-0.352219	87.9414	-0.197907	-0.263463	87.9046	-0.0364347	-0.262735	86.9607	-0.0759168	-0.279287	86.9261	-0.192803	-0.118544	87.031
53	1.73333	-0.539804	-0.656927	88.9824	-0.29065	-0.335423	89.4822	-0.150571	-0.00106274	89.2208	-0.106973	-0.0177142	89.0771	-0.134383	-0.0295303	89.0915	-0.557252	-0.681132	89.0686	-0.550478	-0.564172	89.0393	-0.282095	-0.296679	89.5653	-0.292869	-0.228625	89.4628	-0.625894	-0.759136	89.0658	-0.574645	-0.793583	89.0375	0.0744533	0.0201415	89.2121	-0.206704	-0.170737	89.021	-0.0549681	-0.0981059	88.8277	0.239676	0.0873985	89.1427	0.191856	0.0967837	89.1141	0.241961	0.0553961	89.1281	-0.355587	-0.370067	88.9673	-0.221232	-0.314874	88.9523	-0.478333	-0.311952	89.0175	-0.306657	-0.197475	88.9552	-0.105643	-0.116467	88.9557	0.473757	0.171924	88.9254	-0.405245	-0.341859	89.0453	-0.250239	-0.262647	89.0709	-0.413821	-0.313704	88.9337	-0.263607	-0.231808	88.9084	-0.482752	-0.760844	89.1872	0.330965	0.138287	89.0856	-0.0330419	-0.149861	89.0309	0.0735858	-0.0244205	89.1432	0.147464	0.0453892	89.1826	-0.601055	-0.864145	89.0615	-0.6188	-0.848495	89.0229	0.137491	-0.0138027	89.1178	0.553252	0.142743	88.8706	0.49364	0.203114	88.9718	0.413771	0.214489	88.9077	0.131342	-0.0436329	89.197	-0.441354	-0.402863	89.0177	-0.511333	-0.373277	88.9761	-0.519502	-0.746275	89.2049	-0.0736285	-0.0273075	89.2533	-0.447918	-0.523772	88.9875	-0.0286637	-0.123279	89.244	-0.505031	-0.442811	89.0396	-0.527346	-0.606231	89.064	-0.583661	-0.710036	89.0732	-0.521224	-0.718806	89.2491	-0.498326	-0.781935	89.1436	-0.571627	-0.759479	89.2089	0.0724781	0.0235506	88.9007	0.0471821	0.00639749	88.8784	0.393535	0.218169	88.9672	0.428702	0.210478	89.011	-0.106214	-0.0249723	88.973	-0.213272	-0.337058	89.6111	-0.235528	-0.398733	89.6273	-0.00752501	0.16729	89.157	-0.263339	-0.0972522	89.0082	-0.0913735	-0.0438832	88.8231	-0.1162	-0.00429833	88.7316	-0.0746416	0.019095	88.7735	-0.142464	0.00469887	88.7587	-0.366921	-0.166439	89.1791	-0.309548	-0.145852	89.0179	-0.329127	-0.0851185	89.3099	-0.215292	-0.0973196	89.1229	-0.192531	-0.00981866	88.9526	0.0182272	-0.338459	88.7658	-0.3847	-0.102105	89.2348	-0.321581	-0.00760013	89.0768	-0.301537	-0.170225	89.2103	-0.228763	-0.162566	89.0666	-0.28903	-0.332517	89.7908	-0.0958232	-0.11234	88.7341	-0.15045	0.0335227	88.9962	-0.101356	0.098569	88.9504	-0.127145	0.0966104	88.8422	-0.155133	-0.404253	89.6678	-0.162703	-0.414367	89.6271	-0.106961	0.0190045	88.8783	0.056204	-0.425075	88.7513	-0.0172857	-0.324793	88.719	0.0475736	-0.267451	88.7856	-0.17064	0.0689815	88.8969	0.0383686	-0.131481	89.0149	-0.0590115	0.116212	88.9444	-0.0773956	-0.0914983	89.11	-0.139266	0.029915	89.0585	-0.402401	-0.139486	89.3122	-0.320009	-0.157064	89.3011	-0.281721	-0.306708	89.7651	-0.153723	0.13166	89.1724	-0.364215	-0.266211	89.4627	-0.201129	0.106458	89.0705	-0.34979	-0.150747	89.3786	-0.310764	-0.223092	89.4765	-0.256827	-0.310747	89.5906	-0.289009	-0.25713	89.7704	-0.273209	-0.378842	89.7695	-0.244012	-0.289096	89.7396	-0.020618	-0.242026	88.791	-0.0573403	-0.258142	88.7534	-0.2117	-0.121974	88.8769
